<svg width="955" height="1676" viewBox="0 0 955 1676" fill="none" xmlns="http://www.w3.org/2000/svg">
<path d="M23.5471 736.221C258.182 803.149 139.329 922.297 364.453 960.797" stroke="black" stroke-opacity="0.05"/>
<path d="M473.531 957.029C632.128 907.291 667.733 1103.23 665.71 1207.42C654.994 1267.51 766.345 1239.02 856.539 1290.89C946.733 1342.76 773.046 1467.4 738.861 1488.76C704.676 1510.13 567.199 1574.99 601.964 1488.31C636.729 1401.64 580.694 1314.09 470.815 1383.79C360.936 1453.48 302.745 1332.76 271.182 1067.4C239.618 802.05 275.285 1019.2 473.531 957.029Z" fill="#6342E8"/>
<path d="M473.531 987.029C632.128 937.291 667.733 1133.23 665.71 1237.42C654.994 1297.51 766.345 1269.02 856.539 1320.89C946.733 1372.76 773.046 1497.4 738.861 1518.76C704.676 1540.13 567.199 1604.99 601.964 1518.31C636.729 1431.64 580.694 1344.09 470.815 1413.79C360.936 1483.48 302.745 1362.76 271.182 1097.4C239.618 832.05 275.285 1049.2 473.531 987.029Z" fill="#7456EF"/>
<path d="M473.531 1009.03C632.128 959.291 667.733 1155.23 665.71 1259.42C654.994 1319.51 766.345 1291.02 856.539 1342.89C946.733 1394.76 773.046 1519.4 738.861 1540.76C704.676 1562.13 567.199 1626.99 601.964 1540.31C636.729 1453.64 580.694 1366.09 470.815 1435.79C360.936 1505.48 302.745 1384.76 271.182 1119.4C239.618 854.05 275.285 1071.2 473.531 1009.03Z" fill="#876BF8"/>
<path d="M214.495 278.685C279.095 241.916 225.793 170.565 191.068 139.486C168.132 124.69 211.382 96.9148 221.878 51.5845C232.374 6.25431 138.656 25.1448 121.247 29.8276C103.838 34.5104 40.7228 59.7592 79.6883 74.7821C118.654 89.8049 130.246 134.823 73.9546 149.563C17.663 164.302 39.4586 220.132 116.715 311.305C193.97 402.478 133.744 324.646 214.495 278.685Z" fill="#6342E8"/>
<path d="M233.495 278.685C298.095 241.916 244.793 170.565 210.068 139.486C187.132 124.69 230.382 96.9148 240.878 51.5845C251.374 6.25431 157.656 25.1448 140.247 29.8276C122.838 34.5104 59.7228 59.7592 98.6883 74.7821C137.654 89.8049 149.246 134.823 92.9546 149.563C36.663 164.302 58.4586 220.132 135.715 311.305C212.97 402.478 152.744 324.646 233.495 278.685Z" fill="#6342E8" fill-opacity="0.8"/>
<path d="M195.495 266.685C260.095 229.916 206.793 158.565 172.068 127.486C149.132 112.69 192.382 84.9148 202.878 39.5845C213.374 -5.74569 119.656 13.1448 102.247 17.8276C84.8378 22.5104 21.7228 47.7592 60.6883 62.7821C99.6539 77.8049 111.246 122.823 54.9546 137.563C-1.33698 152.302 20.4586 208.132 97.7146 299.305C174.97 390.478 114.744 312.646 195.495 266.685Z" fill="#5532E0"/>
<path d="M779.408 437.998C518.374 259.415 360.754 560.284 159 353.588" stroke="#5532E0" stroke-opacity="0.05"/>
</svg>
