<svg width="24" height="23" viewBox="0 0 24 23" fill="none" xmlns="http://www.w3.org/2000/svg">
<path d="M14.4311 1.03884C14.7161 0.765291 15.1786 0.765237 15.4636 1.03884L17.6391 3.12854C17.9241 3.40225 17.924 3.84646 17.6391 4.12028C17.0241 4.71103 17.0243 5.67258 17.6391 6.26342C18.2542 6.85425 19.2553 6.85423 19.8703 6.26342C20.1553 5.98989 20.6178 5.98986 20.9028 6.26342L23.0784 8.35312C23.3633 8.62684 23.3633 9.07105 23.0784 9.34487L9.75178 22.1455C9.46675 22.4192 9.0043 22.4193 8.71929 22.1455L6.54374 20.0558C6.25893 19.7821 6.25894 19.3378 6.54374 19.0641C7.15884 18.4733 7.15884 17.5118 6.54374 16.921C5.92862 16.3304 4.92753 16.3302 4.31255 16.921C4.02751 17.1946 3.56506 17.1947 3.28005 16.921L1.1045 14.8313C0.819648 14.5575 0.819686 14.1133 1.1045 13.8395L14.4311 1.03884ZM3.86109 15.4956C5.02849 14.8196 6.56964 14.9626 7.57623 15.9292C8.58278 16.896 8.73138 18.3763 8.02768 19.4977L9.23624 20.6586L12.1478 17.862L11.0322 16.7904C10.7473 16.5167 10.7468 16.0731 11.0315 15.7993C11.3165 15.5256 11.7789 15.5255 12.064 15.7993L13.1796 16.8709L21.5303 8.84967L20.3218 7.6888C19.1543 8.36478 17.6132 8.222 16.6066 7.25517C15.6003 6.28828 15.4514 4.808 16.1552 3.68665L14.9473 2.52645L6.59656 10.5477L7.71216 11.6193C7.99718 11.893 7.99718 12.3372 7.71216 12.611C7.42711 12.8845 6.96533 12.884 6.68037 12.6103L5.56477 11.5387L2.65324 14.3354L3.86109 15.4956Z" fill="white" stroke="white" stroke-width="0.3"/>
<path d="M8.31153 13.1864C8.59649 12.9127 9.05908 12.9127 9.34402 13.1864L10.4314 14.231C10.7164 14.5047 10.7164 14.949 10.4314 15.2227C10.1465 15.4964 9.68394 15.4964 9.39896 15.2227L8.31153 14.1782C8.02662 13.9045 8.02658 13.4602 8.31153 13.1864Z" fill="white" stroke="white" stroke-width="0.3"/>
</svg>
